<?xml version="1.0" encoding="UTF-8"?><svg xmlns="http://www.w3.org/2000/svg" xmlns:xlink="http://www.w3.org/1999/xlink" fill-opacity="1" color-rendering="auto" color-interpolation="auto" text-rendering="auto" stroke="black" stroke-linecap="square" width="131" stroke-miterlimit="10" shape-rendering="auto" stroke-opacity="1" fill="black" stroke-dasharray="none" font-weight="normal" stroke-width="1" height="131" font-family="'Dialog'" font-style="normal" stroke-linejoin="miter" font-size="12px" stroke-dashoffset="0" image-rendering="auto">
  <!--Generated by ySVG 2.5-->
  <defs id="genericDefs"/>
  <g>
    <defs id="defs1">
      <clipPath clipPathUnits="userSpaceOnUse" id="clipPath1">
        <path d="M0 0 L131 0 L131 131 L0 131 L0 0 Z"/>
      </clipPath>
      <clipPath clipPathUnits="userSpaceOnUse" id="clipPath2">
        <path d="M662 285 L793 285 L793 416 L662 416 L662 285 Z"/>
      </clipPath>
    </defs>
    <g fill="white" text-rendering="geometricPrecision" shape-rendering="geometricPrecision" transform="translate(-662,-285)" stroke="white">
      <rect x="662" width="131" height="131" y="285" clip-path="url(#clipPath2)" stroke="none"/>
    </g>
    <g text-rendering="geometricPrecision" stroke-miterlimit="1.45" shape-rendering="geometricPrecision" transform="matrix(1,0,0,1,-662,-285)" stroke-linecap="butt">
      <rect fill="none" x="677.7037" width="100" height="100" y="300.4503" clip-path="url(#clipPath2)"/>
      <rect fill="none" x="727.7037" width="50" height="50" y="350.4503" clip-path="url(#clipPath2)"/>
      <rect fill="none" x="677.7037" width="50" height="50" y="300.4503" clip-path="url(#clipPath2)"/>
    </g>
    <g fill="silver" text-rendering="geometricPrecision" shape-rendering="geometricPrecision" transform="matrix(1,0,0,1,-662,-285)" stroke="silver">
      <rect x="702.7037" width="25" height="25" y="325.4503" clip-path="url(#clipPath2)" stroke="none"/>
    </g>
    <g text-rendering="geometricPrecision" stroke-miterlimit="1.45" shape-rendering="geometricPrecision" transform="matrix(1,0,0,1,-662,-285)" stroke-linecap="butt">
      <rect fill="none" x="702.7037" width="25" height="25" y="325.4503" clip-path="url(#clipPath2)"/>
      <text x="710.5836" xml:space="preserve" y="342.1046" clip-path="url(#clipPath2)" font-family="sans-serif" stroke="none">D</text>
    </g>
    <g fill="silver" text-rendering="geometricPrecision" shape-rendering="geometricPrecision" transform="matrix(1,0,0,1,-662,-285)" stroke="silver">
      <rect x="727.7037" width="25" height="25" y="350.4503" clip-path="url(#clipPath2)" stroke="none"/>
    </g>
    <g text-rendering="geometricPrecision" stroke-miterlimit="1.45" shape-rendering="geometricPrecision" transform="matrix(1,0,0,1,-662,-285)" stroke-linecap="butt">
      <rect fill="none" x="727.7037" width="25" height="25" y="350.4503" clip-path="url(#clipPath2)"/>
      <text x="735.5836" xml:space="preserve" y="367.1046" clip-path="url(#clipPath2)" font-family="sans-serif" stroke="none">D</text>
    </g>
    <g fill="silver" text-rendering="geometricPrecision" shape-rendering="geometricPrecision" transform="matrix(1,0,0,1,-662,-285)" stroke="silver">
      <rect x="752.7037" width="25" height="25" y="375.4503" clip-path="url(#clipPath2)" stroke="none"/>
    </g>
    <g text-rendering="geometricPrecision" stroke-miterlimit="1.45" shape-rendering="geometricPrecision" transform="matrix(1,0,0,1,-662,-285)" stroke-linecap="butt">
      <rect fill="none" x="752.7037" width="25" height="25" y="375.4503" clip-path="url(#clipPath2)"/>
      <text x="760.5836" xml:space="preserve" y="392.1046" clip-path="url(#clipPath2)" font-family="sans-serif" stroke="none">D</text>
    </g>
    <g fill="silver" text-rendering="geometricPrecision" shape-rendering="geometricPrecision" transform="matrix(1,0,0,1,-662,-285)" stroke="silver">
      <rect x="677.7037" width="25" height="25" y="300.4503" clip-path="url(#clipPath2)" stroke="none"/>
    </g>
    <g text-rendering="geometricPrecision" stroke-miterlimit="1.45" shape-rendering="geometricPrecision" transform="matrix(1,0,0,1,-662,-285)" stroke-linecap="butt">
      <rect fill="none" x="677.7037" width="25" height="25" y="300.4503" clip-path="url(#clipPath2)"/>
      <text x="685.5836" xml:space="preserve" y="317.1046" clip-path="url(#clipPath2)" font-family="sans-serif" stroke="none">D</text>
      <rect fill="none" x="677.7037" width="50" height="50" y="350.4503" clip-path="url(#clipPath2)"/>
      <text x="698.5992" xml:space="preserve" y="379.6046" clip-path="url(#clipPath2)" font-family="sans-serif" stroke="none">A</text>
      <rect fill="none" x="727.7037" width="50" height="50" y="300.4503" clip-path="url(#clipPath2)"/>
      <text x="748.5992" xml:space="preserve" y="329.6046" clip-path="url(#clipPath2)" font-family="sans-serif" stroke="none">A</text>
      <rect fill="none" x="677.7037" width="25" height="25" y="325.4503" clip-path="url(#clipPath2)"/>
      <text x="686.0992" xml:space="preserve" y="342.1046" clip-path="url(#clipPath2)" font-family="sans-serif" stroke="none">A</text>
      <rect fill="none" x="702.7037" width="25" height="25" y="300.4503" clip-path="url(#clipPath2)"/>
      <text x="711.0992" xml:space="preserve" y="317.1046" clip-path="url(#clipPath2)" font-family="sans-serif" stroke="none">A</text>
      <rect fill="none" x="752.7037" width="25" height="25" y="350.4503" clip-path="url(#clipPath2)"/>
      <text x="761.0992" xml:space="preserve" y="367.1046" clip-path="url(#clipPath2)" font-family="sans-serif" stroke="none">A</text>
      <rect fill="none" x="727.7037" width="25" height="25" y="375.4503" clip-path="url(#clipPath2)"/>
      <text x="736.0992" xml:space="preserve" y="392.1046" clip-path="url(#clipPath2)" font-family="sans-serif" stroke="none">A</text>
    </g>
  </g>
</svg>
