<?xml version="1.0" encoding="UTF-8"?><svg xmlns="http://www.w3.org/2000/svg" xmlns:xlink="http://www.w3.org/1999/xlink" fill-opacity="1" color-rendering="auto" color-interpolation="auto" text-rendering="auto" stroke="black" stroke-linecap="square" width="202" stroke-miterlimit="10" shape-rendering="auto" stroke-opacity="1" fill="black" stroke-dasharray="none" font-weight="normal" stroke-width="1" height="127" font-family="'Dialog'" font-style="normal" stroke-linejoin="miter" font-size="12px" stroke-dashoffset="0" image-rendering="auto">
  <!--Generated by ySVG 2.5-->
  <defs id="genericDefs"/>
  <g>
    <defs id="defs1">
      <clipPath clipPathUnits="userSpaceOnUse" id="clipPath1">
        <path d="M0 0 L202 0 L202 127 L0 127 L0 0 Z"/>
      </clipPath>
      <clipPath clipPathUnits="userSpaceOnUse" id="clipPath2">
        <path d="M551 65 L753 65 L753 192 L551 192 L551 65 Z"/>
      </clipPath>
    </defs>
    <g fill="white" text-rendering="geometricPrecision" shape-rendering="geometricPrecision" transform="translate(-551,-65)" stroke="white">
      <rect x="551" width="202" height="127" y="65" clip-path="url(#clipPath2)" stroke="none"/>
    </g>
    <g fill="silver" text-rendering="geometricPrecision" shape-rendering="geometricPrecision" transform="matrix(1,0,0,1,-551,-65)" stroke="silver">
      <circle r="10" clip-path="url(#clipPath2)" cx="652.3042" cy="90.616" stroke="none"/>
    </g>
    <g text-rendering="geometricPrecision" stroke-miterlimit="1.45" shape-rendering="geometricPrecision" transform="matrix(1,0,0,1,-551,-65)" stroke-linecap="butt">
      <circle fill="none" r="10" clip-path="url(#clipPath2)" cx="652.3042" cy="90.616"/>
      <text x="648.4869" xml:space="preserve" y="94.7703" clip-path="url(#clipPath2)" font-family="sans-serif" stroke="none">1</text>
    </g>
    <g fill="silver" text-rendering="geometricPrecision" shape-rendering="geometricPrecision" transform="matrix(1,0,0,1,-551,-65)" stroke="silver">
      <circle r="10" clip-path="url(#clipPath2)" cx="602.491" cy="129.7488" stroke="none"/>
    </g>
    <g text-rendering="geometricPrecision" stroke-miterlimit="1.45" shape-rendering="geometricPrecision" transform="matrix(1,0,0,1,-551,-65)" stroke-linecap="butt">
      <circle fill="none" r="10" clip-path="url(#clipPath2)" cx="602.491" cy="129.7488"/>
      <text x="598.6736" xml:space="preserve" y="133.9031" clip-path="url(#clipPath2)" font-family="sans-serif" stroke="none">2</text>
    </g>
    <g fill="silver" text-rendering="geometricPrecision" shape-rendering="geometricPrecision" transform="matrix(1,0,0,1,-551,-65)" stroke="silver">
      <circle r="10" clip-path="url(#clipPath2)" cx="702.1174" cy="129.7488" stroke="none"/>
    </g>
    <g text-rendering="geometricPrecision" stroke-miterlimit="1.45" shape-rendering="geometricPrecision" transform="matrix(1,0,0,1,-551,-65)" stroke-linecap="butt">
      <circle fill="none" r="10" clip-path="url(#clipPath2)" cx="702.1174" cy="129.7488"/>
      <text x="698.3" xml:space="preserve" y="133.9031" clip-path="url(#clipPath2)" font-family="sans-serif" stroke="none">3</text>
    </g>
    <g fill="silver" text-rendering="geometricPrecision" shape-rendering="geometricPrecision" transform="matrix(1,0,0,1,-551,-65)" stroke="silver">
      <circle r="10" clip-path="url(#clipPath2)" cx="576.3725" cy="166.1472" stroke="none"/>
    </g>
    <g text-rendering="geometricPrecision" stroke-miterlimit="1.45" shape-rendering="geometricPrecision" transform="matrix(1,0,0,1,-551,-65)" stroke-linecap="butt">
      <circle fill="none" r="10" clip-path="url(#clipPath2)" cx="576.3725" cy="166.1472"/>
      <text x="572.5551" xml:space="preserve" y="170.3015" clip-path="url(#clipPath2)" font-family="sans-serif" stroke="none">4</text>
    </g>
    <g fill="silver" text-rendering="geometricPrecision" shape-rendering="geometricPrecision" transform="matrix(1,0,0,1,-551,-65)" stroke="silver">
      <circle r="10" clip-path="url(#clipPath2)" cx="626.3725" cy="166.1472" stroke="none"/>
    </g>
    <g text-rendering="geometricPrecision" stroke-miterlimit="1.45" shape-rendering="geometricPrecision" transform="matrix(1,0,0,1,-551,-65)" stroke-linecap="butt">
      <circle fill="none" r="10" clip-path="url(#clipPath2)" cx="626.3725" cy="166.1472"/>
      <text x="622.5551" xml:space="preserve" y="170.3015" clip-path="url(#clipPath2)" font-family="sans-serif" stroke="none">5</text>
    </g>
    <g fill="silver" text-rendering="geometricPrecision" shape-rendering="geometricPrecision" transform="matrix(1,0,0,1,-551,-65)" stroke="silver">
      <circle r="10" clip-path="url(#clipPath2)" cx="677.1174" cy="166.1472" stroke="none"/>
    </g>
    <g text-rendering="geometricPrecision" stroke-miterlimit="1.45" shape-rendering="geometricPrecision" transform="matrix(1,0,0,1,-551,-65)" stroke-linecap="butt">
      <circle fill="none" r="10" clip-path="url(#clipPath2)" cx="677.1174" cy="166.1472"/>
      <text x="673.3" xml:space="preserve" y="170.3015" clip-path="url(#clipPath2)" font-family="sans-serif" stroke="none">6</text>
    </g>
    <g fill="silver" text-rendering="geometricPrecision" shape-rendering="geometricPrecision" transform="matrix(1,0,0,1,-551,-65)" stroke="silver">
      <circle r="10" clip-path="url(#clipPath2)" cx="727.1174" cy="166.1472" stroke="none"/>
    </g>
    <g text-rendering="geometricPrecision" stroke-miterlimit="1.45" shape-rendering="geometricPrecision" transform="matrix(1,0,0,1,-551,-65)" stroke-linecap="butt">
      <circle fill="none" r="10" clip-path="url(#clipPath2)" cx="727.1174" cy="166.1472"/>
      <text x="723.3" xml:space="preserve" y="170.3015" clip-path="url(#clipPath2)" font-family="sans-serif" stroke="none">7</text>
      <path fill="none" d="M644.4406 96.7936 L610.3547 123.5712" clip-path="url(#clipPath2)"/>
      <path fill="none" d="M660.1679 96.7936 L694.2538 123.5712" clip-path="url(#clipPath2)"/>
      <path fill="none" d="M596.6609 137.8735 L582.2025 158.0225" clip-path="url(#clipPath2)"/>
      <path fill="none" d="M607.9768 138.1098 L620.8867 157.7862" clip-path="url(#clipPath2)"/>
      <path fill="none" d="M696.4558 137.9917 L682.7791 157.9043" clip-path="url(#clipPath2)"/>
      <path fill="none" d="M707.7791 137.9917 L721.4558 157.9043" clip-path="url(#clipPath2)"/>
    </g>
  </g>
</svg>
